#!OML:ASF E:\motion texture\Top Level 1\Subject 1\Session 1\male.ASF
:FULLY-SPECIFIED
:DEGREES
607
root -39.311 17.9949 2.7582 181.537 -70.7155 -171.782
lowerback 0.437297 -7.22275 8.61189
upperback 0.808851 -10.5319 11.0245
thorax 1.25387 -5.59559 6.71786
lowerneck -14.3233 -2.42769 -3.51693
upperneck 4.33356 -2.75735 1.30397
head 4.09702 -1.38535 0.852621
rclavicle -8.74653e-015 1.08139e-013
rhumerus -35.142 5.98895 -73.4201
rradius 85.1986
rwrist -4.76045
rhand -41.1777 -51.3909
rfingers 7.12502
rthumb -14.1028 -440.892
lclavicle -8.74653e-015 1.08139e-013
lhumerus -9.59735 -43.4118 102.761
lradius 69.4591
lwrist 18.9152
lhand 3.2204 39.1402
lfingers 7.12502
lthumb 28.6711 66.96
rfemur -19.6956 13.696 22.3428
rtibia 27.477
rfoot -11.1495 -2.40424
rtoes 11.9525
lfemur -30.6795 10.9067 -17.8693
ltibia 42.6083
lfoot -9.07718 9.34096
ltoes -15.2664
608
root -39.4675 17.9912 2.7335 181.44 -70.4499 -171.632
lowerback 0.372789 -7.18561 8.70578
upperback 0.847466 -10.4938 10.9701
thorax 1.3015 -5.57177 6.59745
lowerneck -14.4263 -2.38977 -3.49698
upperneck 4.82723 -2.70537 1.3019
head 3.82493 -1.35523 0.759799
rclavicle 1.56642e-013 -3.49861e-014
rhumerus -36.8091 4.6144 -72.7276
rradius 83.9317
rwrist -8.1038
rhand -39.9784 -51.3626
rfingers 7.12502
rthumb -12.947 -440.941
lclavicle 1.56642e-013 -3.49861e-014
lhumerus -11.1582 -41.9194 102.944
lradius 69.3104
lwrist 17.0484
lhand 3.03672 39.2318
lfingers 7.12502
lthumb 28.4956 67.0811
rfemur -19.0433 13.7534 22.5233
rtibia 27.3008
rfoot -11.5402 -2.51258
rtoes 11.5298
lfemur -31.0021 10.8502 -17.5209
ltibia 41.1353
lfoot -9.05054 9.51627
ltoes -15.1164
609
root -39.6242 17.9861 2.70822 181.326 -70.2052 -171.468
lowerback 0.301995 -7.14156 8.79799
upperback 0.878862 -10.4457 10.9134
thorax 1.34442 -5.54265 6.47529
lowerneck -14.4761 -2.36258 -3.48402
upperneck 4.95694 -2.6624 1.23028
head 3.87059 -1.33765 0.737745
rclavicle -6.52014e-014 -8.90555e-014
rhumerus -38.4303 3.2054 -71.9187
rradius 82.537
rwrist -11.5024
rhand -38.7321 -51.3957
rfingers 7.12502
rthumb -11.7454 -441.046
lclavicle -6.52014e-014 -8.90555e-014
lhumerus -12.6416 -40.312 103.014
lradius 69.1714
lwrist 15.183
lhand 2.77733 39.3616
lfingers 7.12502
lthumb 28.2478 67.2522
rfemur -18.3864 13.7949 22.7075
rtibia 27.1315
rfoot -11.9263 -2.63341
rtoes 11.0863
lfemur -31.2883 10.7544 -17.1517
ltibia 39.6273
lfoot -8.98201 9.67897
ltoes -14.9888
610
root -39.7807 17.9795 2.68233 181.196 -69.9808 -171.291
lowerback 0.230832 -7.08908 8.88383
upperback 0.900928 -10.3846 10.8565
thorax 1.37823 -5.50705 6.35731
lowerneck -14.524 -2.34919 -3.48231
upperneck 5.08866 -2.63604 1.16341
head 3.91723 -1.32831 0.717704
rclavicle 4.77083e-014 1.36764e-013
rhumerus -40.0074 1.75926 -70.9903
rradius 81.0077
rwrist -14.9003
rhand -37.4456 -51.5196
rfingers 7.12502
rthumb -10.5045 -441.237
lclavicle 4.77083e-014 1.36764e-013
lhumerus -14.0473 -38.6041 102.969
lradius 69.0432
lwrist 13.3298
lhand 2.44315 39.5217
lfingers 7.12502
lthumb 27.9283 67.4648
rfemur -17.7323 13.8256 22.8947
rtibia 26.9775
rfoot -12.3085 -2.77139
rtoes 10.6219
lfemur -31.5451 10.621 -16.7609
ltibia 38.1009
lfoot -8.87511 9.83413
ltoes -14.8784
611
root -39.9376 17.9716 2.65593 181.046 -69.7807 -171.102
lowerback 0.154982 -7.02885 8.9666
upperback 0.916203 -10.3123 10.7984
thorax 1.40747 -5.46574 6.2398
lowerneck -14.5716 -2.35079 -3.49598
upperneck 5.22128 -2.62758 1.10714
head 3.9649 -1.32762 0.702015
rclavicle 7.4743e-014 3.18055e-015
rhumerus -41.547 0.283013 -69.9447
rradius 79.3453
rwrist -18.2457
rhand -36.1322 -51.7202
rfingers 7.12502
rthumb -9.23738 -441.498
lclavicle 7.4743e-014 3.18055e-015
lhumerus -15.3717 -36.8095 102.805
lradius 68.9253
lwrist 11.5004
lhand 2.04067 39.6939
lfingers 7.12502
lthumb 27.5435 67.6989
rfemur -17.0728 13.8363 23.0853
rtibia 26.8355
rfoot -12.6858 -2.91923
rtoes 10.1399
lfemur -31.7668 10.4472 -16.3522
ltibia 36.5632
lfoot -8.73338 9.98306
ltoes -14.7797
612
root -40.0948 17.9622 2.629 180.875 -69.6044 -170.9
lowerback 0.0757025 -6.95975 9.0448
upperback 0.923525 -10.2272 10.7405
thorax 1.43074 -5.41807 6.12528
lowerneck -14.6173 -2.3688 -3.52493
upperneck 5.35584 -2.63863 1.05712
head 4.01363 -1.3366 0.689179
rclavicle 2.8625e-014 9.54166e-014
rhumerus -43.054 -1.21857 -68.7815
rradius 77.547
rwrist -21.4771
rhand -34.8112 -52.0065
rfingers 7.12502
rthumb -7.96253 -441.837
lclavicle 2.8625e-014 9.54166e-014
lhumerus -16.6181 -34.941 102.525
lradius 68.8196
lwrist 9.70532
lhand 1.58654 39.8653
lfingers 7.12502
lthumb 27.1091 67.9388
rfemur -16.4092 13.8284 23.2791
rtibia 26.7089
rfoot -13.0581 -3.07477
rtoes 9.64002
lfemur -31.9548 10.2337 -15.9261
ltibia 35.0235
lfoot -8.56006 10.1297
ltoes -14.6921
613
root -40.2529 17.9515 2.60172 180.685 -69.4603 -170.688
lowerback -0.0115956 -6.88527 9.12169
upperback 0.924348 -10.1347 10.6805
thorax 1.45147 -5.3664 6.00884
lowerneck -14.6605 -2.4028 -3.5709
upperneck 5.49001 -2.66881 1.01865
head 4.06267 -1.35482 0.681126
rclavicle 5.64548e-014 -7.63333e-014
rhumerus -44.532 -2.73625 -67.5128
rradius 75.6177
rwrist -24.5539
rhand -33.5011 -52.339
rfingers 7.12502
rthumb -6.69796 -442.213
lclavicle 5.64548e-014 -7.63333e-014
lhumerus -17.7891 -33.0133 102.126
lradius 68.7289
lwrist 7.96091
lhand 1.07419 40.0349
lfingers 7.12502
lthumb 26.6189 68.1837
rfemur -15.7352 13.7878 23.474
rtibia 26.5939
rfoot -13.4246 -3.23184
rtoes 9.11738
lfemur -32.1079 9.97575 -15.491
ltibia 33.4925
lfoot -8.36138 10.2697
ltoes -14.6205
